<svg width="846" height="335" viewBox="0 0 846 335" fill="none" xmlns="http://www.w3.org/2000/svg">
<path d="M422.202 25.5687V179.336C518.736 180.608 711.803 179.641 711.803 165.6C711.803 148.048 743.472 69.4476 764.076 38.9232C780.559 14.5036 760.261 3.05692 748.051 0.386032H447.003C431.741 0.386032 424.11 17.1745 422.202 25.5687Z" fill="#DC994F"/>
<circle cx="548.497" cy="90.0512" r="9.53889" fill="#CB843C"/>
<circle cx="643.887" cy="90.0512" r="9.53889" fill="#CB843C"/>
<path d="M764.076 38.9232C780.559 14.5036 760.261 3.05692 748.051 0.386032H623.368C681.975 137.441 513.677 169.67 422.202 165.6V179.336C518.736 180.608 711.803 179.641 711.803 165.6C711.803 148.048 743.472 69.4476 764.076 38.9232Z" fill="#CB843C"/>
<path d="M422.288 25.5687V179.336C325.755 180.608 132.688 179.641 132.688 165.6C132.688 148.048 101.019 69.4476 80.4146 38.9232C63.9314 14.5036 84.2301 3.05692 96.4399 0.386032H397.487C412.75 0.386032 420.381 17.1745 422.288 25.5687Z" fill="#DC994F"/>
<path d="M422.288 25.5687V179.336C325.755 180.608 132.688 179.641 132.688 165.6C255.04 189.892 474.104 190.859 371.542 0.386032H397.487C412.75 0.386032 420.381 17.1745 422.288 25.5687Z" fill="#CB843C"/>
<circle cx="9.53889" cy="9.53889" r="9.53889" transform="matrix(-1 0 0 1 305.532 80.5123)" fill="#CB843C"/>
<circle cx="9.53889" cy="9.53889" r="9.53889" transform="matrix(-1 0 0 1 210.143 80.5123)" fill="#CB843C"/>
<path d="M775.203 252.567L785.825 331.168C786.073 333 784.648 334.629 782.8 334.629H774.122C772.934 334.629 771.855 333.941 771.354 332.864L747.432 281.45C746.931 280.373 745.852 279.685 744.665 279.685H99.5191C98.3381 279.685 97.2631 280.366 96.7589 281.434L72.465 332.88C71.9607 333.948 70.8857 334.629 69.7048 334.629H61.427C59.5679 334.629 58.1405 332.981 58.4058 331.141L69.7355 252.541C69.9521 251.039 71.2392 249.924 72.7568 249.924H772.178C773.706 249.924 774.999 251.053 775.203 252.567Z" fill="#89563D"/>
<path d="M763.4 37.0163C818.039 61.4359 839.584 78.4787 843.527 83.9476C792.78 83.9476 791.254 270.147 766.452 269.384C741.651 268.621 696.246 238.096 709.982 163.693C720.971 104.17 750.173 54.4407 763.4 37.0163Z" fill="#D29049"/>
<path d="M767.856 270.176H791.131C794.82 269.667 802.493 266.402 804.486 257.584C810.708 230.049 820.232 182.641 831.195 144.247C839.97 97.6841 861.337 77.4859 822.8 77.4865C778.787 77.4871 754.12 245.756 754.12 257.584C754.12 267.047 763.278 269.921 767.856 270.176Z" fill="#E8A660"/>
<path d="M81.6942 37.0152C27.0555 61.4347 5.51031 78.4775 1.56757 83.9465C52.3145 83.9465 53.8407 270.146 78.6418 269.383C103.443 268.619 148.848 238.095 135.112 163.692C124.123 104.169 94.9215 54.4395 81.6942 37.0152Z" fill="#D29049"/>
<path d="M77.2382 270.175H53.9633C50.275 269.666 42.6012 266.401 40.6089 257.584C34.387 230.048 24.8624 182.64 13.9 144.247C5.12423 97.6835 -16.2428 77.4852 22.2941 77.4858C66.3072 77.4864 90.9742 245.755 90.9742 257.584C90.9742 267.046 81.8169 269.921 77.2382 270.175Z" fill="#E8A660"/>
<rect width="663.907" height="59.5227" rx="12.9729" transform="matrix(-1 0 0 1 754.243 211.005)" fill="#D08C47"/>
<path d="M422.288 174.101V189.63C422.288 191.318 420.918 192.686 419.229 192.682L93.2773 191.922C91.6393 191.918 90.281 190.62 90.3193 188.983C90.4669 182.671 92.023 178.822 94.9137 177.809L129.671 166.884C129.967 166.791 130.275 166.743 130.586 166.743H415.787C420.376 167.053 422.034 171.778 422.288 174.101Z" fill="#E8A660"/>
<mask id="path-16-inside-1_1_8079" fill="white">
<path d="M422.288 188.874C422.288 182.973 417.505 178.19 411.605 178.19H101.019C95.1181 178.19 90.3349 182.973 90.3349 188.874V212.53C90.3349 218.43 95.1181 223.214 101.019 223.214H411.605C417.505 223.214 422.288 218.43 422.288 212.53V188.874Z"/>
</mask>
<path d="M422.288 188.874C422.288 182.973 417.505 178.19 411.605 178.19H101.019C95.1181 178.19 90.3349 182.973 90.3349 188.874V212.53C90.3349 218.43 95.1181 223.214 101.019 223.214H411.605C417.505 223.214 422.288 218.43 422.288 212.53V188.874Z" fill="#E8A660"/>
<path d="M422.288 188.874C422.288 182.552 417.164 177.427 410.842 177.427H101.782C95.4598 177.427 90.3349 182.552 90.3349 188.874C90.3349 183.395 95.1181 178.953 101.019 178.953H411.605C417.505 178.953 422.288 183.395 422.288 188.874ZM90.3349 223.214H422.288H90.3349ZM422.288 223.214V178.19V223.214ZM90.3349 178.19V223.214V178.19Z" fill="#FBC58C" mask="url(#path-16-inside-1_1_8079)"/>
<path d="M422.261 174.101V189.63C422.261 191.318 423.632 192.686 425.321 192.682L751.273 191.922C752.911 191.918 754.269 190.62 754.231 188.983C754.083 182.671 752.527 178.822 749.636 177.809L714.879 166.884C714.583 166.791 714.275 166.743 713.964 166.743H428.763C424.174 167.053 422.516 171.778 422.261 174.101Z" fill="#E8A660"/>
<mask id="path-19-inside-2_1_8079" fill="white">
<path d="M422.262 188.874C422.262 182.973 427.045 178.19 432.945 178.19H743.531C749.432 178.19 754.215 182.973 754.215 188.874V212.53C754.215 218.43 749.432 223.214 743.531 223.214H432.945C427.045 223.214 422.262 218.43 422.262 212.53V188.874Z"/>
</mask>
<path d="M422.262 188.874C422.262 182.973 427.045 178.19 432.945 178.19H743.531C749.432 178.19 754.215 182.973 754.215 188.874V212.53C754.215 218.43 749.432 223.214 743.531 223.214H432.945C427.045 223.214 422.262 218.43 422.262 212.53V188.874Z" fill="#E8A660"/>
<path d="M422.262 188.874C422.262 182.552 427.386 177.427 433.708 177.427H742.768C749.09 177.427 754.215 182.552 754.215 188.874C754.215 183.395 749.432 178.953 743.531 178.953H432.945C427.045 178.953 422.262 183.395 422.262 188.874ZM754.215 223.214H422.262H754.215ZM422.262 223.214V178.19V223.214ZM754.215 178.19V223.214V178.19Z" fill="#FBC58C" mask="url(#path-19-inside-2_1_8079)"/>
<g filter="url(#filter0_d_1_8079)">
<path d="M703.067 15.6549C711.614 23.5912 725.452 102.65 731.302 141.187C734.355 142.713 741.528 148.055 745.801 157.212C750.075 166.369 736.39 166.115 729.013 164.843C725.197 167.514 587.837 169.803 577.535 174.001C569.294 177.358 570.286 163.953 571.812 156.831C566.089 151.489 545.866 58.0076 541.669 45.0348C538.311 34.6564 556.041 35.623 565.326 37.4036C593.561 15.2734 682.082 10.6947 682.463 9.16852C682.845 7.6423 695.818 0.774191 700.778 0.392636C704.746 0.0873913 703.957 10.4403 703.067 15.6549Z" fill="#002269"/>
<path d="M719.139 72.8815C721.428 82.0389 725.451 103.031 731.302 141.568C734.354 143.094 741.528 148.436 745.801 157.593C750.075 166.751 736.389 166.496 729.013 165.224C725.197 167.895 587.837 170.185 577.535 174.382C569.293 177.74 570.286 164.334 571.812 157.212C566.088 151.87 545.866 58.3889 541.669 45.416C538.311 35.0377 556.041 36.0043 565.325 37.7849C580.252 25.1871 601.238 23.2793 601.619 21.7531C631.265 81.8863 692.827 82.1661 719.139 72.8815Z" fill="#001E5C"/>
<path d="M571.575 156.632C565.852 151.29 547.058 63.7238 543.242 50.7509C548.711 46.4266 559.717 43.2267 560.938 64.2886C562.464 90.6159 586.791 145.192 577.298 173.802C569.057 177.159 570.049 163.754 571.575 156.632Z" fill="#001644"/>
</g>
<defs>
<filter id="filter0_d_1_8079" x="541.252" y="0.386032" width="209.175" height="177.579" filterUnits="userSpaceOnUse" color-interpolation-filters="sRGB">
<feFlood flood-opacity="0" result="BackgroundImageFix"/>
<feColorMatrix in="SourceAlpha" type="matrix" values="0 0 0 0 0 0 0 0 0 0 0 0 0 0 0 0 0 0 127 0" result="hardAlpha"/>
<feOffset dx="3.81556" dy="3.05245"/>
<feComposite in2="hardAlpha" operator="out"/>
<feColorMatrix type="matrix" values="0 0 0 0 0 0 0 0 0 0 0 0 0 0 0 0 0 0 0.25 0"/>
<feBlend mode="normal" in2="BackgroundImageFix" result="effect1_dropShadow_1_8079"/>
<feBlend mode="normal" in="SourceGraphic" in2="effect1_dropShadow_1_8079" result="shape"/>
</filter>
</defs>
</svg>
