<svg width="60" height="57" viewBox="0 0 60 57" fill="none" xmlns="http://www.w3.org/2000/svg">
<g filter="url(#filter0_d_1_1307)">
<path d="M45.4958 27.5268H42.7772C42.725 27.5268 42.675 27.5061 42.6382 27.4692C42.6013 27.4324 42.5806 27.3824 42.5806 27.3302V19.7386C42.5806 18.7256 42.1782 17.7541 41.4619 17.0379C40.7456 16.3216 39.7742 15.9192 38.7612 15.9192H31.1695C31.1174 15.9192 31.0674 15.8985 31.0306 15.8616C30.9937 15.8248 30.973 15.7748 30.973 15.7226V13.004C30.973 10.3365 28.8598 8.10346 26.1923 8.05727C25.546 8.04592 24.904 8.16338 24.3036 8.40282C23.7032 8.64225 23.1565 8.99886 22.6953 9.45183C22.2342 9.90481 21.8679 10.4451 21.6178 11.0411C21.3678 11.6372 21.2389 12.277 21.2387 12.9234V15.7226C21.2387 15.7748 21.218 15.8248 21.1811 15.8616C21.1443 15.8985 21.0943 15.9192 21.0421 15.9192H13.4505C12.4187 15.9223 11.43 16.3336 10.7004 17.0632C9.97078 17.7928 9.55951 18.7815 9.5564 19.8133V26.7307C9.5564 26.7828 9.57711 26.8328 9.61397 26.8697C9.65084 26.9065 9.70083 26.9273 9.75297 26.9273H12.3979C15.2845 26.9273 17.6739 29.4316 17.7142 32.3183C17.7554 35.2541 15.4034 37.9353 12.4765 37.9353H9.75297C9.70083 37.9353 9.65084 37.956 9.61397 37.9929C9.57711 38.0298 9.5564 38.0798 9.5564 38.1319V45.0493C9.55951 46.0811 9.97078 47.0698 10.7004 47.7994C11.43 48.529 12.4187 48.9403 13.4505 48.9434H20.3679C20.42 48.9434 20.47 48.9227 20.5069 48.8858C20.5438 48.8489 20.5645 48.7989 20.5645 48.7468V46.6897C20.5645 43.7136 22.997 41.1512 25.9702 41.0815C28.9286 41.0127 31.5725 43.0777 31.5725 46.0233V48.7468C31.5725 48.7989 31.5932 48.8489 31.6301 48.8858C31.667 48.9227 31.717 48.9434 31.7691 48.9434H38.7612C39.7742 48.9434 40.7456 48.541 41.4619 47.8247C42.1782 47.1084 42.5806 46.1369 42.5806 45.124V37.4576C42.5806 37.4055 42.6013 37.3555 42.6382 37.3187C42.675 37.2818 42.725 37.2611 42.7772 37.2611H45.5764C48.292 37.2611 50.4435 35.0329 50.4435 32.3074C50.4435 29.582 48.1632 27.5268 45.4958 27.5268Z" fill="white"/>
</g>
<defs>
<filter id="filter0_d_1_1307" x="8.5564" y="8.05652" width="41.8871" height="43.8868" filterUnits="userSpaceOnUse" color-interpolation-filters="sRGB">
<feFlood flood-opacity="0" result="BackgroundImageFix"/>
<feColorMatrix in="SourceAlpha" type="matrix" values="0 0 0 0 0 0 0 0 0 0 0 0 0 0 0 0 0 0 127 0" result="hardAlpha"/>
<feOffset dx="-1" dy="3"/>
<feComposite in2="hardAlpha" operator="out"/>
<feColorMatrix type="matrix" values="0 0 0 0 0.303725 0 0 0 0 0.493401 0 0 0 0 0.718094 0 0 0 1 0"/>
<feBlend mode="normal" in2="BackgroundImageFix" result="effect1_dropShadow_1_1307"/>
<feBlend mode="normal" in="SourceGraphic" in2="effect1_dropShadow_1_1307" result="shape"/>
</filter>
</defs>
</svg>
