<svg width="526" height="482" viewBox="0 0 526 482" fill="none" xmlns="http://www.w3.org/2000/svg">
<path d="M98.4667 457.815C98.4667 427.624 156.502 423.423 191.968 425.572C198.416 425.891 195.192 438.47 191.968 438.47H191.968C188.743 438.47 111.363 438.47 111.363 457.815C111.363 477.16 201.64 476.241 201.64 480.384C201.64 481.561 98.4667 485.465 98.4667 457.815Z" fill="#8E4747"/>
<path d="M465.147 57.121C403.243 33.907 368.422 68.943 358.749 89.3628L365.198 224.778C490.941 260.244 513.51 189.312 519.958 176.416C526.407 163.519 542.527 86.1387 465.147 57.121Z" fill="#E3C795"/>
<path d="M107.262 23.6662C173.33 21.1972 191.589 78.617 194.316 101.047L159.639 214.971C29.1315 208.897 26.6577 130.064 26.6577 120.392C26.6577 105.973 24.6776 26.7525 107.262 23.6662Z" fill="#E3C795"/>
<g filter="url(#filter0_i_1_8114)">
<path d="M455.515 81.1232C402.966 63.3362 373.407 90.1814 365.197 105.827L370.67 209.585C477.41 236.759 496.569 182.41 502.043 172.529C507.516 162.647 521.201 103.357 455.515 81.1232Z" fill="#E8B6B6"/>
</g>
<g filter="url(#filter1_i_1_8114)">
<path d="M119.328 50.1407C174.805 49.8653 175.347 109.401 178.194 126.84L159.245 198.827C49.3863 190.89 46.3068 133.463 46.3068 122.167C46.3068 110.719 49.9816 50.4848 119.328 50.1407Z" fill="#E8B6B6"/>
</g>
<path d="M224.692 454.659H173.106C173.106 441.762 186.002 441.762 182.778 438.538C179.554 435.314 153.76 425.641 150.536 393.399C147.957 367.606 175.255 359.008 189.226 357.934H198.899V419.193C216.954 419.193 223.618 442.837 224.692 454.659Z" fill="#E3C795"/>
<rect x="180.894" y="443.414" width="9.15862" height="9.15862" rx="3.05287" fill="#FDE8D7"/>
<rect x="193.106" y="443.414" width="9.15862" height="9.15862" rx="3.05287" fill="#FDE8D7"/>
<rect x="208.37" y="443.414" width="9.15862" height="9.15862" rx="3.05287" fill="#FDE8D7"/>
<path d="M312.169 454.659H363.755C363.755 441.762 350.859 441.762 354.083 438.538C357.307 435.314 383.1 425.641 386.325 393.4C388.904 367.606 361.606 359.008 347.634 357.934H337.962V419.193C319.907 419.193 313.243 442.837 312.169 454.659Z" fill="#E3C795"/>
<rect width="9.15862" height="9.15862" rx="3.05287" transform="matrix(-1 0 0 1 355.967 443.414)" fill="#FDE8D7"/>
<rect width="9.15862" height="9.15862" rx="3.05287" transform="matrix(-1 0 0 1 343.756 443.414)" fill="#FDE8D7"/>
<rect width="9.15862" height="9.15862" rx="3.05287" transform="matrix(-1 0 0 1 328.492 443.414)" fill="#FDE8D7"/>
<path fill-rule="evenodd" clip-rule="evenodd" d="M329.67 255.629C337.614 305.066 350.099 408.455 336.479 426.51C322.86 444.566 308.106 453.378 302.431 455.528L268.384 455.528L268.383 455.528L234.335 455.528C228.661 453.378 213.906 444.566 200.287 426.51C186.668 408.455 199.152 305.066 207.097 255.629L268.383 255.629H329.67Z" fill="#E3C795"/>
<path fill-rule="evenodd" clip-rule="evenodd" d="M329.67 255.629C337.614 305.066 350.099 408.455 336.479 426.51C322.86 444.566 308.106 453.378 302.431 455.528L268.384 455.528L268.383 455.528L234.335 455.528C228.661 453.378 213.906 444.566 200.287 426.51C186.668 408.455 199.152 305.066 207.097 255.629L268.383 255.629H329.67Z" fill="url(#paint0_linear_1_8114)" fill-opacity="0.2"/>
<g filter="url(#filter2_i_1_8114)">
<path fill-rule="evenodd" clip-rule="evenodd" d="M326.274 262.077C333.361 308.325 344.497 405.044 332.349 421.934C320.2 438.825 307.039 447.069 301.977 449.08H271.607V449.08H236.451C231.389 447.069 218.229 438.825 206.08 421.934C193.932 405.044 205.068 308.325 212.154 262.077H271.606V262.077H326.274Z" fill="#FDE8D7"/>
</g>
<g filter="url(#filter3_i_1_8114)">
<path d="M188.847 326.948C182.458 301.394 194.171 265.724 200.826 251.083L220.79 255.076C211.473 272.378 200.826 316.966 216.797 322.955C248.74 334.934 268.705 302.991 264.712 314.97C256.627 339.225 196.833 358.892 188.847 326.948Z" fill="#E3C795"/>
</g>
<path d="M216.003 264.821C214.781 264.821 202.265 263.803 196.159 263.294L197.685 258.715L217.529 261.768C217.529 262.786 217.224 264.821 216.003 264.821Z" fill="#D8B881"/>
<g filter="url(#filter4_i_1_8114)">
<path d="M339.694 326.948C346.082 301.394 334.37 265.724 327.715 251.083L307.751 255.076C317.067 272.378 327.715 316.966 311.743 322.955C279.8 334.934 259.836 302.991 263.828 314.97C271.913 339.225 331.708 358.892 339.694 326.948Z" fill="#E3C795"/>
</g>
<path d="M312.169 264.821C312.169 264.821 325.907 263.803 332.012 263.294L328.959 258.715L310.642 260.242C310.642 261.259 312.169 264.821 312.169 264.821Z" fill="#D8B881"/>
<path d="M166.077 111.328C169.447 86.0564 188.914 65.9435 214.062 61.7522L258.931 54.274C265.248 53.2212 271.696 53.2212 278.013 54.274L321.409 61.5066C347.254 65.8142 367.008 86.9055 369.615 112.977L378.162 198.446C381.578 232.61 354.749 262.256 320.415 262.256H212.24C177.141 262.256 150.075 231.341 154.714 196.55L166.077 111.328Z" fill="#FDE8D7"/>
<path fill-rule="evenodd" clip-rule="evenodd" d="M212.698 61.6959C187.524 65.8073 167.986 85.8736 164.547 111.148L153.222 194.382C151.656 205.888 153.562 216.977 158.082 226.67C158.279 223.965 158.822 221.225 159.748 218.498C163.064 208.729 170.824 201.117 180.655 197.989L248.674 176.346C259.809 172.803 271.754 172.704 282.947 176.062L353.566 197.248C364.832 200.627 373.388 209.769 376.057 221.153C378.725 213.441 379.803 205.023 378.914 196.314L370.396 112.835C367.733 86.7418 347.9 65.6778 322.015 61.4501L277.463 54.1738C271.268 53.1619 264.949 53.1619 258.754 54.1738L212.698 61.6959Z" fill="#E3C795"/>
<path d="M288.356 171.708C288.356 176.766 279.335 183.92 268.207 183.92C257.079 183.92 248.058 176.766 248.058 171.708C248.058 166.65 257.079 162.549 268.207 162.549C279.335 162.549 288.356 166.65 288.356 171.708Z" fill="#4E4949"/>
<rect x="261.34" y="221.779" width="5.39102" height="8.98502" rx="2.69551" fill="white"/>
<rect x="266.731" y="221.779" width="5.39102" height="8.98502" rx="2.69551" fill="white"/>
<path d="M287.745 202.237C287.745 214.039 278.178 223.607 266.375 223.607C254.573 223.607 245.005 214.039 245.005 202.237" stroke="#4E4949" stroke-width="4.27402" stroke-linecap="round"/>
<ellipse cx="208.37" cy="179.34" rx="12.2115" ry="7.63219" transform="rotate(-16.1742 208.37 179.34)" fill="#E39D9D"/>
<ellipse cx="12.2115" cy="7.63219" rx="12.2115" ry="7.63219" transform="matrix(-0.960419 -0.278559 -0.278559 0.960419 342.929 175.458)" fill="#E39D9D"/>
<circle cx="209.039" cy="137.548" r="22.0404" transform="rotate(-19.549 209.039 137.548)" fill="white"/>
<path fill-rule="evenodd" clip-rule="evenodd" d="M216.496 153.611C224.812 150.658 229.16 141.523 226.207 133.206C223.254 124.89 214.118 120.542 205.802 123.495C203.427 124.338 201.375 125.686 199.725 127.375C201.784 127.578 203.642 128.938 204.38 131.016C205.398 133.884 203.899 137.034 201.031 138.053C198.952 138.791 196.725 138.206 195.269 136.736C194.999 139.082 195.247 141.525 196.091 143.9C199.044 152.216 208.179 156.564 216.496 153.611Z" fill="#393939"/>
<circle cx="321.398" cy="137.548" r="22.0404" transform="rotate(-19.549 321.398 137.548)" fill="white"/>
<path fill-rule="evenodd" clip-rule="evenodd" d="M323.249 153.611C331.565 150.658 335.913 141.523 332.96 133.206C330.007 124.89 320.871 120.542 312.555 123.495C310.18 124.338 308.128 125.686 306.478 127.375C308.537 127.578 310.395 128.938 311.133 131.016C312.151 133.884 310.652 137.034 307.784 138.053C305.706 138.791 303.478 138.206 302.022 136.736C301.752 139.082 302 141.524 302.844 143.9C305.797 152.216 314.932 156.564 323.249 153.611Z" fill="#393939"/>
<path d="M183.697 113.339C188.178 107.355 200.73 98.0746 215.092 108.828" stroke="#AE8D52" stroke-width="2.80345" stroke-linecap="round"/>
<path d="M352.462 113.339C347.982 107.355 335.43 98.0746 321.067 108.828" stroke="#AE8D52" stroke-width="2.80345" stroke-linecap="round"/>
<defs>
<filter id="filter0_i_1_8114" x="365.197" y="75.2529" width="141.864" height="141.864" filterUnits="userSpaceOnUse" color-interpolation-filters="sRGB">
<feFlood flood-opacity="0" result="BackgroundImageFix"/>
<feBlend mode="normal" in="SourceGraphic" in2="BackgroundImageFix" result="shape"/>
<feColorMatrix in="SourceAlpha" type="matrix" values="0 0 0 0 0 0 0 0 0 0 0 0 0 0 0 0 0 0 127 0" result="hardAlpha"/>
<feOffset dy="12.8967"/>
<feComposite in2="hardAlpha" operator="arithmetic" k2="-1" k3="1"/>
<feColorMatrix type="matrix" values="0 0 0 0 0.890196 0 0 0 0 0.596078 0 0 0 0 0.596078 0 0 0 1 0"/>
<feBlend mode="normal" in2="shape" result="effect1_innerShadow_1_8114"/>
</filter>
<filter id="filter1_i_1_8114" x="46.3067" y="50.1397" width="131.887" height="148.687" filterUnits="userSpaceOnUse" color-interpolation-filters="sRGB">
<feFlood flood-opacity="0" result="BackgroundImageFix"/>
<feBlend mode="normal" in="SourceGraphic" in2="BackgroundImageFix" result="shape"/>
<feColorMatrix in="SourceAlpha" type="matrix" values="0 0 0 0 0 0 0 0 0 0 0 0 0 0 0 0 0 0 127 0" result="hardAlpha"/>
<feOffset dx="-6.44836" dy="12.8967"/>
<feComposite in2="hardAlpha" operator="arithmetic" k2="-1" k3="1"/>
<feColorMatrix type="matrix" values="0 0 0 0 0.891667 0 0 0 0 0.594444 0 0 0 0 0.594444 0 0 0 1 0"/>
<feBlend mode="normal" in2="shape" result="effect1_innerShadow_1_8114"/>
</filter>
<filter id="filter2_i_1_8114" x="200.675" y="262.077" width="137.079" height="187.003" filterUnits="userSpaceOnUse" color-interpolation-filters="sRGB">
<feFlood flood-opacity="0" result="BackgroundImageFix"/>
<feBlend mode="normal" in="SourceGraphic" in2="BackgroundImageFix" result="shape"/>
<feColorMatrix in="SourceAlpha" type="matrix" values="0 0 0 0 0 0 0 0 0 0 0 0 0 0 0 0 0 0 127 0" result="hardAlpha"/>
<feOffset dy="3.05287"/>
<feComposite in2="hardAlpha" operator="arithmetic" k2="-1" k3="1"/>
<feColorMatrix type="matrix" values="0 0 0 0 0.970833 0 0 0 0 0.838941 0 0 0 0 0.73217 0 0 0 1 0"/>
<feBlend mode="normal" in2="shape" result="effect1_innerShadow_1_8114"/>
</filter>
<filter id="filter3_i_1_8114" x="187" y="251.083" width="78.218" height="92.5087" filterUnits="userSpaceOnUse" color-interpolation-filters="sRGB">
<feFlood flood-opacity="0" result="BackgroundImageFix"/>
<feBlend mode="normal" in="SourceGraphic" in2="BackgroundImageFix" result="shape"/>
<feColorMatrix in="SourceAlpha" type="matrix" values="0 0 0 0 0 0 0 0 0 0 0 0 0 0 0 0 0 0 127 0" result="hardAlpha"/>
<feOffset dy="3.05287"/>
<feComposite in2="hardAlpha" operator="arithmetic" k2="-1" k3="1"/>
<feColorMatrix type="matrix" values="0 0 0 0 0.845833 0 0 0 0 0.723115 0 0 0 0 0.503976 0 0 0 1 0"/>
<feBlend mode="normal" in2="shape" result="effect1_innerShadow_1_8114"/>
</filter>
<filter id="filter4_i_1_8114" x="263.322" y="251.083" width="78.218" height="92.5087" filterUnits="userSpaceOnUse" color-interpolation-filters="sRGB">
<feFlood flood-opacity="0" result="BackgroundImageFix"/>
<feBlend mode="normal" in="SourceGraphic" in2="BackgroundImageFix" result="shape"/>
<feColorMatrix in="SourceAlpha" type="matrix" values="0 0 0 0 0 0 0 0 0 0 0 0 0 0 0 0 0 0 127 0" result="hardAlpha"/>
<feOffset dy="3.05287"/>
<feComposite in2="hardAlpha" operator="arithmetic" k2="-1" k3="1"/>
<feColorMatrix type="matrix" values="0 0 0 0 0.845833 0 0 0 0 0.723115 0 0 0 0 0.503976 0 0 0 1 0"/>
<feBlend mode="normal" in2="shape" result="effect1_innerShadow_1_8114"/>
</filter>
<linearGradient id="paint0_linear_1_8114" x1="268.383" y1="255.629" x2="269.429" y2="455.626" gradientUnits="userSpaceOnUse">
<stop stop-color="#E3C795"/>
<stop offset="1" stop-color="#C2A674"/>
</linearGradient>
</defs>
</svg>
